REM DIRINDEX 1\2,1\4,1\3\5,1\3\6,1\3\7
REM DIRNAME cjc083,folder01,folder02,folder03,folder04,folder05,folder06
TITLE ""
FILE "CD1Track47.mp3" MP3
  TRACK 01 AUDIO
    TITLE "0:"
    INDEX 01 00:00:00
  TRACK 02 AUDIO
    TITLE "5:cjc083_0969"
    INDEX 01 00:00:27
  TRACK 03 AUDIO
    TITLE "0:"
    INDEX 01 00:01:60
  TRACK 04 AUDIO
    TITLE "6:cjc083_0970"
    INDEX 01 00:02:18
  TRACK 05 AUDIO
    TITLE "0:"
    INDEX 01 00:03:55
  TRACK 06 AUDIO
    TITLE "5:cjc083_0971"
    INDEX 01 00:04:15
  TRACK 07 AUDIO
    TITLE "0:"
    INDEX 01 00:05:40
  TRACK 08 AUDIO
    TITLE "6:cjc083_0972"
    INDEX 01 00:06:02
  TRACK 09 AUDIO
    TITLE "0:"
    INDEX 01 00:07:13
  TRACK 10 AUDIO
    TITLE "5:cjc083_0973"
    INDEX 01 00:07:54
  TRACK 11 AUDIO
    TITLE "0:"
    INDEX 01 00:08:60
  TRACK 12 AUDIO
    TITLE "6:cjc083_0974"
    INDEX 01 00:09:30
  TRACK 13 AUDIO
    TITLE "0:"
    INDEX 01 00:10:43
  TRACK 14 AUDIO
    TITLE "5:cjc083_0975"
    INDEX 01 00:11:05
  TRACK 15 AUDIO
    TITLE "0:"
    INDEX 01 00:12:69
  TRACK 16 AUDIO
    TITLE "6:cjc083_0976"
    INDEX 01 00:13:32
  TRACK 17 AUDIO
    TITLE "0:"
    INDEX 01 00:15:60
  TRACK 18 AUDIO
    TITLE "5:cjc083_0977"
    INDEX 01 00:16:24
  TRACK 19 AUDIO
    TITLE "0:"
    INDEX 01 00:17:43
  TRACK 20 AUDIO
    TITLE "6:cjc083_0978"
    INDEX 01 00:18:13
  TRACK 21 AUDIO
    TITLE "0:"
    INDEX 01 00:19:54
  TRACK 22 AUDIO
    TITLE "5:cjc083_0979"
    INDEX 01 00:20:20
  TRACK 23 AUDIO
    TITLE "0:"
    INDEX 01 00:21:39
  TRACK 24 AUDIO
    TITLE "6:cjc083_0980"
    INDEX 01 00:22:01
  TRACK 25 AUDIO
    TITLE "0:"
    INDEX 01 00:24:00
  TRACK 26 AUDIO
    TITLE "5:cjc083_0981"
    INDEX 01 00:24:37
  TRACK 27 AUDIO
    TITLE "0:"
    INDEX 01 00:25:50
  TRACK 28 AUDIO
    TITLE "6:cjc083_0982"
    INDEX 01 00:26:17
  TRACK 29 AUDIO
    TITLE "0:"
    INDEX 01 00:27:30
  TRACK 30 AUDIO
    TITLE "5:cjc083_0983"
    INDEX 01 00:28:04
  TRACK 31 AUDIO
    TITLE "0:"
    INDEX 01 00:29:15
  TRACK 32 AUDIO
    TITLE "6:cjc083_0984"
    INDEX 01 00:29:60
  TRACK 33 AUDIO
    TITLE "0:"
    INDEX 01 00:33:24
  TRACK 34 AUDIO
    TITLE "5:cjc083_0985"
    INDEX 01 00:33:66
  TRACK 35 AUDIO
    TITLE "0:"
    INDEX 01 00:35:00
  TRACK 36 AUDIO
    TITLE "6:cjc083_0986"
    INDEX 01 00:35:41
  TRACK 37 AUDIO
    TITLE "0:"
    INDEX 01 00:36:60
  TRACK 38 AUDIO
    TITLE "5:cjc083_0987"
    INDEX 01 00:37:20
  TRACK 39 AUDIO
    TITLE "0:"
    INDEX 01 00:38:51
  TRACK 40 AUDIO
    TITLE "6:cjc083_0988"
    INDEX 01 00:39:13
  TRACK 41 AUDIO
    TITLE "0:"
    INDEX 01 00:40:21
  TRACK 42 AUDIO
    TITLE "5:cjc083_0989"
    INDEX 01 00:40:64
  TRACK 43 AUDIO
    TITLE "0:"
    INDEX 01 00:42:12
  TRACK 44 AUDIO
    TITLE "6:cjc083_0990"
    INDEX 01 00:42:51
  TRACK 45 AUDIO
    TITLE "0:"
    INDEX 01 00:43:64
  TRACK 46 AUDIO
    TITLE "5:cjc083_0991"
    INDEX 01 00:44:30
  TRACK 47 AUDIO
    TITLE "0:"
    INDEX 01 00:45:61
  TRACK 48 AUDIO
    TITLE "6:cjc083_0992"
    INDEX 01 00:46:25
  TRACK 49 AUDIO
    TITLE "0:"
    INDEX 01 00:47:42
  TRACK 50 AUDIO
    TITLE "5:cjc083_0993"
    INDEX 01 00:48:10
  TRACK 51 AUDIO
    TITLE "0:"
    INDEX 01 00:49:18
  TRACK 52 AUDIO
    TITLE "6:cjc083_0994"
    INDEX 01 00:49:61
  TRACK 53 AUDIO
    TITLE "0:"
    INDEX 01 00:50:72
  TRACK 54 AUDIO
    TITLE "5:cjc083_0995"
    INDEX 01 00:51:42
  TRACK 55 AUDIO
    TITLE "0:"
    INDEX 01 00:52:63
  TRACK 56 AUDIO
    TITLE "6:cjc083_0996"
    INDEX 01 00:53:27
  TRACK 57 AUDIO
    TITLE "0:"
    INDEX 01 00:54:54
  TRACK 58 AUDIO
    TITLE "7:cjc083_0997"
    INDEX 01 00:56:12
  TRACK 59 AUDIO
    TITLE "0:"
    INDEX 01 01:06:73
